<svg width="50" height="50" viewBox="0 0 50 50" fill="none" xmlns="http://www.w3.org/2000/svg">
<path d="M45.4545 0H4.54548C2.0397 0 0 2.03853 0 4.54548V45.4545C0 47.9614 2.0397 50 4.54548 50H45.4545C47.9603 50 50 47.9615 50 45.4545V4.54548C49.9999 2.03853 47.9603 0 45.4545 0ZM14.7727 4.54548C15.4003 4.54548 15.9091 5.05418 15.9091 5.68188C15.9091 6.30947 15.4003 6.81828 14.7727 6.81828C14.1452 6.81828 13.6363 6.30937 13.6363 5.68177C13.6363 5.05408 14.1452 4.54548 14.7727 4.54548ZM10.2273 4.54548C10.8548 4.54548 11.3637 5.05418 11.3637 5.68188C11.3637 6.30937 10.8548 6.81817 10.2273 6.81817C9.59967 6.81817 9.09086 6.30937 9.09086 5.68177C9.09086 5.05408 9.59967 4.54548 10.2273 4.54548ZM5.68177 4.54548C6.30937 4.54548 6.81817 5.05408 6.81817 5.68177C6.81817 6.30937 6.30937 6.81817 5.68177 6.81817C5.05418 6.81817 4.54538 6.30937 4.54538 5.68177C4.54548 5.05408 5.05429 4.54548 5.68177 4.54548ZM45.4545 45.4545H4.54548V11.3637H45.4545V45.4545Z" fill="white"/>
<path d="M9.09092 38.6428C10.3472 38.6428 11.3703 37.6196 11.3703 36.3634C11.3703 35.5433 10.9111 34.8551 10.2586 34.4535C10.4674 30.8352 12.3499 24.2143 23.0949 23.9018C23.4975 24.55 24.1831 25.0063 25.0001 25.0063C26.2563 25.0063 27.2795 23.9832 27.2795 22.7269C27.2795 21.4707 26.2563 20.4475 25.0001 20.4475C24.1559 20.4475 23.4466 20.9304 23.0526 21.6148C12.4172 21.9269 8.30588 28.2248 7.98052 34.4146C7.29529 34.8083 6.81152 35.5182 6.81152 36.3631C6.81152 37.6196 7.83478 38.6428 9.09092 38.6428Z" fill="white"/>
<path d="M30.3067 39.7083C30.4288 39.7516 30.5552 39.7726 30.6818 39.7726C31.0192 39.7726 31.3499 39.6206 31.5696 39.3465L35.7733 34.0909H42.0455C42.5271 34.0909 42.9577 33.7856 43.1175 33.3307C43.2773 32.8757 43.1331 32.3686 42.7557 32.0667L31.3921 22.9759C31.0481 22.7028 30.5865 22.6485 30.1891 22.8394C29.7962 23.0291 29.5454 23.4264 29.5454 23.8637V38.6365C29.5454 39.1191 29.8495 39.5485 30.3067 39.7083Z" fill="white"/>
</svg>
