<svg width="46" height="46" viewBox="0 0 46 46" fill="none" xmlns="http://www.w3.org/2000/svg">
<path fill-rule="evenodd" clip-rule="evenodd" d="M3.22793 3.22793C0 6.45585 0 11.6511 0 22.0417V23.9583C0 34.3489 0 39.5442 3.22793 42.772C6.45585 46 11.6511 46 22.0417 46H23.9583C34.3489 46 39.5442 46 42.772 42.772C46 39.5442 46 34.3489 46 23.9583V22.0417C46 11.6511 46 6.45585 42.772 3.22793C39.5442 0 34.3489 0 23.9583 0H22.0417C11.6511 0 6.45585 0 3.22793 3.22793ZM9.10427 14.375H12.4592C13.3166 14.375 13.6392 14.7502 13.9607 15.679C15.6016 20.4576 18.3682 24.6339 19.5055 24.6339C19.932 24.6339 20.1277 24.4375 20.1277 23.3546V18.4151C20.0507 17.0092 19.5594 16.4011 19.1955 15.9507C18.9708 15.6726 18.7946 15.4546 18.7946 15.146C18.7946 14.7708 19.1153 14.375 19.6483 14.375H24.9204C25.6314 14.375 25.8789 14.7551 25.8789 15.608V22.253C25.8789 22.9636 26.1876 23.2124 26.4008 23.2124C26.8274 23.2124 27.1828 22.9636 27.9648 22.1819C30.3818 19.4812 32.0878 15.3236 32.0878 15.3236C32.3011 14.8262 32.6944 14.375 33.5474 14.375H36.9024C37.9169 14.375 38.1302 14.8972 37.9169 15.608C37.4904 17.5623 33.4029 23.319 33.4029 23.319C33.0475 23.8875 32.9053 24.1718 33.4029 24.8114C33.5781 25.0567 33.952 25.4229 34.3798 25.8419C34.8198 26.2727 35.3168 26.7594 35.7133 27.2279C37.1544 28.8487 38.2405 30.2162 38.543 31.1586C38.8195 32.1042 38.3402 32.5833 37.3816 32.5833H34.0267C33.1281 32.5833 32.6757 32.0801 31.6979 30.9928C31.2835 30.5318 30.7746 29.9659 30.0974 29.2889C28.107 27.37 27.254 27.1212 26.7563 27.1212C26.081 27.1212 25.879 27.3125 25.879 28.2708V31.2789C25.879 32.1042 25.6152 32.5833 23.4826 32.5833C19.9283 32.5833 16.0223 30.4259 13.2499 26.4461C9.09139 20.6183 7.95398 16.212 7.95398 15.3236C7.95398 14.8262 8.1457 14.375 9.10427 14.375Z" fill="#C1D0E6"/>
</svg>
