<svg width="47" height="46" viewBox="0 0 47 46" fill="none" xmlns="http://www.w3.org/2000/svg">
<path fill-rule="evenodd" clip-rule="evenodd" d="M46.8582 13.5174C46.7462 11.0691 46.3574 9.39717 45.7888 7.93439C45.2115 6.39966 44.306 5.00953 43.1359 3.8605C41.9873 2.69042 40.5968 1.78461 39.0621 1.20693C37.5989 0.638738 35.9273 0.250231 33.4791 0.138978C31.0262 0.0266726 30.2426 0 23.9963 0C17.75 0 16.9663 0.0266726 14.5135 0.138276C12.0652 0.250231 10.3936 0.639089 8.93048 1.20764C7.39575 1.78496 6.00562 2.69042 4.8566 3.8605C3.68651 5.00918 2.7807 6.39931 2.20303 7.93404C1.63483 9.39717 1.24632 11.0691 1.13507 13.517C1.02277 15.9702 0.996094 16.7535 0.996094 22.9998C0.996094 29.2465 1.02277 30.0302 1.13507 32.483C1.24668 34.9309 1.63553 36.6028 2.20408 38.066C2.7814 39.6003 3.68686 40.9908 4.85695 42.1395C6.00562 43.3096 7.39611 44.215 8.93083 44.7924C10.3936 45.3613 12.0656 45.7498 14.5138 45.8617C16.967 45.9737 17.7503 46 23.9966 46C30.2429 46 31.0266 45.9737 33.4794 45.8617C35.9277 45.7498 37.5993 45.3613 39.0624 44.7924C42.1519 43.5977 44.5942 41.1554 45.7888 38.066C46.3577 36.6028 46.7462 34.9309 46.8582 32.483C46.9698 30.0298 46.9964 29.2465 46.9964 23.0002C46.9964 16.7535 46.9698 15.9702 46.8582 13.5174ZM42.718 32.2945C42.6158 34.5371 42.241 35.7549 41.9262 36.5653C41.1523 38.5713 39.5671 40.1566 37.561 40.9305C36.7507 41.2453 35.5329 41.6201 33.2903 41.7222C30.8655 41.8331 30.138 41.8563 23.9963 41.8563C17.8542 41.8563 17.127 41.8331 14.7019 41.7222C12.4597 41.6201 11.2419 41.2453 10.4312 40.9305C9.43235 40.5616 8.52864 39.9738 7.78672 39.2097C7.02269 38.4678 6.43484 37.5644 6.06599 36.5653C5.75118 35.7549 5.37636 34.5371 5.27423 32.2945C5.16368 29.8694 5.14017 29.1419 5.14017 23.0005C5.14017 16.8588 5.16368 16.1316 5.27423 13.7062C5.37671 11.4636 5.75118 10.2458 6.06599 9.43542C6.43484 8.43625 7.02304 7.53254 7.78672 6.79063C8.52864 6.0266 9.43235 5.43875 10.4315 5.07024C11.2419 4.75509 12.4597 4.38062 14.7023 4.27814C17.1274 4.16759 17.8549 4.14407 23.9963 4.14407C30.1373 4.14408 30.8649 4.16759 33.2903 4.27849C35.5329 4.38062 36.7503 4.75544 37.561 5.07024C38.5598 5.4391 39.4636 6.02695 40.2055 6.79063C40.9695 7.53254 41.5573 8.43625 41.9258 9.43542C42.241 10.2458 42.6158 11.4636 42.718 13.7062C42.8285 16.1313 42.852 16.8588 42.852 23.0002C42.852 29.1419 42.8289 29.8691 42.718 32.2945ZM23.996 11.189C17.4731 11.189 12.1853 16.4772 12.1853 23C12.1853 29.5229 17.4731 34.8107 23.996 34.8107C30.5192 34.8107 35.807 29.5229 35.807 23C35.807 16.4772 30.5192 11.189 23.996 11.189ZM23.996 30.6666C19.7621 30.6663 16.3294 27.2339 16.3297 22.9997C16.3297 18.7657 19.7621 15.3331 23.9963 15.3331C28.2306 15.3334 31.6629 18.7657 31.6629 22.9997C31.6629 27.2339 28.2302 30.6666 23.996 30.6666ZM36.2738 13.4827C37.798 13.4827 39.0337 12.247 39.0337 10.7228C39.0337 9.19828 37.798 7.96257 36.2738 7.96257C34.7493 7.96257 33.5135 9.19828 33.5135 10.7228C33.5135 12.247 34.7493 13.4827 36.2738 13.4827Z" fill="#C1D0E6"/>
</svg>
