<svg width="46" height="37" viewBox="0 0 46 37" fill="none" xmlns="http://www.w3.org/2000/svg">
<path d="M14.4666 36.9997C31.8261 36.9997 41.319 22.766 41.319 10.4237C41.319 10.0194 41.3106 9.61679 41.2923 9.21631C43.1348 7.89781 44.7366 6.25246 46 4.3796C44.3091 5.12361 42.4891 5.62412 40.5802 5.85024C42.5287 4.6936 44.0248 2.86451 44.7303 0.683912C42.9067 1.75372 40.8873 2.53106 38.7374 2.951C37.0153 1.13545 34.5632 0 31.8482 0C26.6366 0 22.41 4.18301 22.41 9.33927C22.41 10.0725 22.4929 10.7852 22.6547 11.4692C14.8109 11.0784 7.85536 7.36186 3.20103 1.70995C2.39069 3.09028 1.92322 4.69395 1.92322 6.40494C1.92322 9.64527 3.58954 12.5063 6.12306 14.1798C4.57466 14.1326 3.12032 13.7119 1.84882 13.0117C1.84741 13.0509 1.84741 13.0891 1.84741 13.1308C1.84741 17.6546 5.10039 21.4315 9.4192 22.2874C8.62605 22.501 7.79149 22.616 6.9306 22.616C6.32346 22.616 5.73175 22.5569 5.15654 22.4475C6.3582 26.1588 9.84245 28.8594 13.9732 28.9351C10.743 31.4408 6.67371 32.9333 2.25136 32.9333C1.49049 32.9333 0.738754 32.8903 0 32.8041C4.17668 35.4536 9.13669 37 14.4669 37" fill="#C1D0E6"/>
</svg>
