<svg width="46" height="46" viewBox="0 0 46 46" fill="none" xmlns="http://www.w3.org/2000/svg">
<path fill-rule="evenodd" clip-rule="evenodd" d="M46 23C46 35.7025 35.7025 46 23 46C10.2975 46 0 35.7025 0 23C0 10.2975 10.2975 0 23 0C35.7025 0 46 10.2975 46 23ZM23.8242 16.9796C21.5871 17.9101 17.1161 19.8359 10.4111 22.7572C9.32232 23.1902 8.75197 23.6137 8.70004 24.0279C8.6123 24.7279 9.48884 25.0035 10.6825 25.3788C10.8448 25.4299 11.0131 25.4828 11.1855 25.5388C12.3599 25.9206 13.9396 26.3671 14.7608 26.3849C15.5057 26.401 16.3371 26.0939 17.255 25.4636C23.5197 21.2347 26.7535 19.0973 26.9566 19.0512C27.0998 19.0187 27.2983 18.9778 27.4328 19.0974C27.5673 19.2169 27.554 19.4433 27.5398 19.504C27.453 19.8742 24.0122 23.073 22.2316 24.7284C21.6765 25.2445 21.2828 25.6105 21.2023 25.6941C21.022 25.8814 20.8382 26.0586 20.6616 26.2288C19.5706 27.2805 18.7525 28.0692 20.7069 29.3572C21.6461 29.9761 22.3977 30.4879 23.1474 30.9985C23.9663 31.5561 24.783 32.1123 25.8397 32.805C26.1089 32.9815 26.3661 33.1648 26.6165 33.3433C27.5694 34.0227 28.4256 34.633 29.4833 34.5357C30.0979 34.4792 30.7327 33.9012 31.0551 32.1777C31.817 28.1043 33.3148 19.2787 33.6609 15.6418C33.6912 15.3232 33.6531 14.9154 33.6224 14.7364C33.5918 14.5574 33.5278 14.3023 33.2951 14.1135C33.0195 13.8899 32.5941 13.8428 32.4038 13.8461C31.5388 13.8614 30.2115 14.3229 23.8242 16.9796Z" fill="#C1D0E6"/>
</svg>
